<svg width="150" height="150" viewBox="0 0 150 150" fill="none" xmlns="http://www.w3.org/2000/svg">
<path d="M54.8209 35.1747C53.9835 32.8743 53.5256 30.3913 53.5256 27.8045C53.5256 15.9002 63.1759 6.25 75.0801 6.25C86.9844 6.25 96.6346 15.9002 96.6346 27.8045C96.6346 31.2915 95.8013 34.597 94.324 37.5198C96.4497 37.6668 98.5155 38.6247 100.021 40.3458C108.204 49.6973 115.365 63.0308 115.365 78.4856C115.365 89.5346 111.561 97.7221 106.421 103.621L116.183 105.334C120.169 106.033 123.077 109.495 123.077 113.542V129.167C123.077 131.377 122.199 133.496 120.636 135.059C119.073 136.622 116.954 137.5 114.744 137.5L35.4167 137.5C30.8143 137.5 27.0833 133.769 27.0833 129.167V113.542C27.0833 109.499 29.9844 106.04 33.965 105.336L42.7714 103.778C37.5612 97.8674 33.6939 89.6341 33.6939 78.4856C33.6939 66.4278 38.3666 55.9269 43.8471 47.8793C47.2919 42.8209 51.1919 38.5266 54.8209 35.1747Z" fill="#F4F7FA"/>
<path d="M79.1667 77.3838H70.8333C70.8333 62.0821 75.4744 46.806 85.7419 35.6243C87.3508 33.4343 88.3013 30.7304 88.3013 27.8045C88.3013 20.5026 82.382 14.5833 75.0801 14.5833C67.7782 14.5833 61.859 20.5026 61.859 27.8045C61.859 31.407 63.2999 34.673 65.6367 37.0576C57.3779 42.9453 42.0272 58.7268 42.0272 78.4856C42.0272 98.4256 57.6608 106.498 65.8622 108.156L35.4167 113.542V129.167L114.744 129.167V113.542L83.5761 108.075C91.8702 106.25 107.031 98.1219 107.031 78.4856C107.031 65.6281 101.042 54.1666 93.75 45.8333C85.7419 52.0833 79.1667 66.6666 79.1667 77.3838Z" fill="#262626"/>
</svg>
