<svg width="150" height="150" viewBox="0 0 150 150" fill="none" xmlns="http://www.w3.org/2000/svg">
<path fill-rule="evenodd" clip-rule="evenodd" d="M62.5041 8.07304C62.6446 3.57421 66.3323 0 70.8333 0H83.3333C87.8344 0 91.522 3.57421 91.6626 8.07304L91.7358 10.4167H95.8333C100.436 10.4167 104.167 14.1476 104.167 18.75V23.8043C113.25 21.7487 123.055 23.1218 131.377 30.0565C148.664 44.463 147.074 74.6627 126.557 91.181C121.605 95.1672 117.716 98.472 115.037 101.877C114.426 102.654 113.903 103.406 113.462 104.141L121.907 105.284C126.041 105.843 129.124 109.371 129.124 113.542V129.167C129.124 133.769 125.393 137.5 120.791 137.5H33.3761C28.7738 137.5 25.0428 133.769 25.0428 129.167V113.542C25.0428 109.371 28.1261 105.843 32.2592 105.284L40.7048 104.141C40.2641 103.406 39.7406 102.654 39.1295 101.877C36.451 98.4719 32.5613 95.1672 27.61 91.181C7.09295 74.6627 5.50226 44.463 22.7901 30.0565C31.1118 23.1218 40.9163 21.7487 50 23.8043V18.75C50 14.1476 53.731 10.4167 58.3333 10.4167H62.4308L62.5041 8.07304Z" fill="#F4F7FA"/>
<path fill-rule="evenodd" clip-rule="evenodd" d="M70.8333 8.33331H83.3333L83.6589 18.75H95.8333V31.25H84.0495L84.6219 45.402C84.8503 45.1329 85.0856 44.8691 85.328 44.6114C96.7096 32.5147 113.585 26.0775 126.042 36.4583C138.542 46.875 138.542 70.8333 121.331 84.6899C111.581 92.5392 102.849 100.106 103.279 111.173L120.791 113.542V129.167H33.3761V113.542L50.8878 111.173C51.3181 100.106 42.5854 92.5391 32.836 84.6899C15.625 70.8333 15.625 46.875 28.125 36.4583C40.582 26.0775 57.4571 32.5147 68.8387 44.6114C69.0811 44.8691 69.3163 45.1329 69.5447 45.402L70.1172 31.25H58.3333V18.75H70.5078L70.8333 8.33331ZM59.0584 56.194C66.6973 68.7065 67.7083 83.3333 67.7083 89.6942C63.8795 89.7011 49.4455 83.351 41.8034 72.9263C36.3017 65.4213 34.8671 54.2864 39.5833 49.9635C44.2996 45.6407 54.2841 48.3738 59.0584 56.194ZM95.1083 56.194C87.4694 68.7065 86.4583 83.3333 86.4583 89.6942C90.2872 89.7011 104.721 83.351 112.363 72.9263C117.865 65.4213 119.3 54.2864 114.583 49.9635C109.867 45.6407 99.8826 48.3738 95.1083 56.194Z" fill="#262626"/>
</svg>
