<svg width="150" height="150" viewBox="0 0 150 150" fill="none" xmlns="http://www.w3.org/2000/svg">
<path d="M61.8539 1.05618C64.5969 0.747733 67.3148 1.81763 69.1115 3.9132L86.1134 23.7433C105.638 28.5683 116.951 43.2705 123.208 61.6242C129.655 80.5364 131.25 104.546 131.25 129.167C131.25 133.769 127.519 137.5 122.917 137.5H45.2186C40.7945 137.5 37.1415 134.043 36.8979 129.626C36.6805 125.683 37.5875 118.844 40.3512 111.857L40.402 111.729C32.5536 115.942 23.8434 114.933 17.3774 110.329C9.51932 104.734 5.15005 93.7821 10.142 82.9662C13.7418 75.1667 17.6215 71.0366 20.5565 67.913C23.2981 64.9952 24.4406 63.7119 25.2488 60.4789C30.1493 40.8769 40.2311 29.5848 51.058 24.4314C50.9015 22.1983 51.0288 20.0468 51.3027 18.0935C51.9845 13.2314 53.6819 8.73829 55.412 5.45364C56.6985 3.01138 59.1108 1.36463 61.8539 1.05618Z" fill="#F4F7FA"/>
<path fill-rule="evenodd" clip-rule="evenodd" d="M81.6056 31.2885L62.7851 9.33728C60.0607 14.5094 57.4195 23.6377 61.2168 30.2274C59.3737 30.3915 57.6124 30.7032 56.25 31.25C47.558 34.7381 38.0208 43.75 33.3333 62.5C31.976 67.9292 29.5331 70.5292 26.6296 73.6193C23.8907 76.5341 20.7421 79.8851 17.7083 86.4583C11.4583 100 28.3257 113.542 40.625 101.242C47.5399 94.3275 53.5841 91.4729 58.6587 89.0762C65.9625 85.6267 71.2576 83.1259 74.2486 70.8333C75.6717 76.5672 75.1025 90.0993 61.4413 98.3562C47.7801 106.613 44.934 124.006 45.2186 129.167H122.917C122.917 80.1733 116.43 37.8433 81.6056 31.2885Z" fill="#262626"/>
<circle cx="58.3333" cy="56.25" r="6.25" fill="#F4F7FA"/>
</svg>
