<svg width="150" height="150" viewBox="0 0 150 150" fill="none" xmlns="http://www.w3.org/2000/svg">
<path d="M48.1406 85.6812C47.1464 87.0384 45.9601 88.4519 44.5772 89.9059C39.6969 95.0371 33.7116 99.2589 29.8487 101.466L29.1988 101.838C26.6024 103.321 25 106.083 25 109.073V129.167C25 133.769 28.731 137.5 33.3333 137.5H114.583C119.186 137.5 122.917 133.769 122.917 129.167V109.073C122.917 106.083 121.314 103.321 118.718 101.838L118.068 101.466C114.205 99.2589 108.22 95.0372 103.339 89.9059C101.957 88.4519 100.77 87.0384 99.7761 85.6812C103.433 84.8002 106.151 81.5071 106.151 77.5794V64.0143C106.151 61.3066 104.835 58.7677 102.623 57.2062L99.0838 54.7079C101.126 50.7399 102.282 46.237 102.282 41.4683C102.282 25.4695 89.3122 12.5 73.3135 12.5C57.3148 12.5 44.3452 25.4695 44.3452 41.4683C44.3452 46.5053 45.6342 51.2442 47.8948 55.37L45.2935 57.2062C43.0814 58.7677 41.7659 61.3066 41.7659 64.0143V77.5794C41.7659 81.5071 44.4833 84.8002 48.1406 85.6812Z" fill="#F4F7FA"/>
<path d="M93.9484 41.4682C93.9484 47.4529 91.4007 52.8426 87.3306 56.6117L97.8175 64.0143V77.5793H87.5512C88.0463 83.8671 92.0806 90.1599 97.3011 95.6489C102.841 101.474 109.507 106.172 113.934 108.702L114.583 109.073V129.167H33.3333V109.073L33.9832 108.702C38.4098 106.172 45.0754 101.474 50.6156 95.6489C55.8361 90.1599 59.8704 83.8671 60.3655 77.5793H50.0992V64.0143L59.866 57.1201C55.4654 53.3358 52.6786 47.7275 52.6786 41.4682C52.6786 30.0719 61.9172 20.8333 73.3135 20.8333C84.7099 20.8333 93.9484 30.0719 93.9484 41.4682Z" fill="#262626"/>
</svg>
