<svg width="150" height="150" viewBox="0 0 150 150" fill="none" xmlns="http://www.w3.org/2000/svg">
<path d="M37.5 20.8334C37.5 22.8903 37.8309 24.8694 38.4424 26.7205L34.3289 28.6501C30.9188 25.1153 26.1328 22.9167 20.8333 22.9167C10.478 22.9167 2.08333 31.3114 2.08333 41.6667C2.08333 50.8975 8.75374 58.5704 17.5373 60.128L27.4167 94.0001C27.6229 94.7071 27.9219 95.3837 28.306 96.0122L34 105.33L33.965 105.336C29.9844 106.04 27.0833 109.499 27.0833 113.542V129.167C27.0833 133.769 30.8143 137.5 35.4167 137.5L114.744 137.5C116.954 137.5 119.073 136.622 120.636 135.059C122.199 133.496 123.077 131.377 123.077 129.167V113.542C123.077 109.495 120.169 106.033 116.183 105.334L116.016 105.304L121.694 96.0122C122.078 95.3837 122.377 94.7071 122.583 94.0001L132.463 60.128C141.246 58.5704 147.917 50.8975 147.917 41.6667C147.917 31.3114 139.522 22.9167 129.167 22.9167C123.86 22.9167 119.069 25.1209 115.658 28.6635L111.552 26.7373C112.167 24.8814 112.5 22.8966 112.5 20.8334C112.5 10.478 104.105 2.08337 93.75 2.08337C83.3947 2.08337 75 10.478 75 20.8334C75 10.478 66.6053 2.08337 56.25 2.08337C45.8947 2.08337 37.5 10.478 37.5 20.8334Z" fill="#F4F7FA"/>
<path d="M60.0725 30.6421C63.9783 29.1395 66.75 25.3518 66.75 20.9167C66.75 15.1637 62.0863 10.5 56.3333 10.5C50.5804 10.5 45.9167 15.1637 45.9167 20.9167C45.9167 26.233 49.8993 30.6192 55.0439 31.2543L50.3985 68.8333L28.0046 49.3835C30.0522 47.4813 31.3333 44.7653 31.3333 41.75C31.3333 35.9971 26.6696 31.3334 20.9167 31.3334C15.1637 31.3334 10.5 35.9971 10.5 41.75C10.5 47.503 15.1637 52.1667 20.9167 52.1667C21.9294 52.1667 22.9084 52.0222 23.8341 51.7526L35.5 91.75L47.5638 111.491L35.5 113.625V129.25L114.827 129.25V113.625L102.608 111.482L114.667 91.75L126.333 51.7526C127.258 52.0222 128.237 52.1667 129.25 52.1667C135.003 52.1667 139.667 47.503 139.667 41.75C139.667 35.9971 135.003 31.3334 129.25 31.3334C123.497 31.3334 118.833 35.9971 118.833 41.75C118.833 44.7653 120.114 47.4813 122.162 49.3835L99.7682 68.8333L95.1228 31.2543C100.267 30.6192 104.25 26.233 104.25 20.9167C104.25 15.1637 99.5863 10.5 93.8333 10.5C88.0804 10.5 83.4167 15.1637 83.4167 20.9167C83.4167 25.3518 86.1884 29.1395 90.0942 30.6421L75.0833 64.6667L60.0725 30.6421Z" fill="#262626"/>
</svg>
