<svg width="150" height="150" viewBox="0 0 150 150" fill="none" xmlns="http://www.w3.org/2000/svg">
<path d="M37.5 20.8333C37.5 22.8903 37.8309 24.8694 38.4424 26.7205L34.3289 28.6501C30.9188 25.1153 26.1328 22.9167 20.8333 22.9167C10.478 22.9167 2.08333 31.3113 2.08333 41.6667C2.08333 50.8975 8.75374 58.5703 17.5373 60.1279L27.4167 94C27.6229 94.7071 27.9219 95.3837 28.306 96.0121L34 105.33L33.965 105.336C29.9844 106.04 27.0833 109.499 27.0833 113.542V129.167C27.0833 133.769 30.8143 137.5 35.4167 137.5L114.744 137.5C116.954 137.5 119.073 136.622 120.636 135.059C122.199 133.496 123.077 131.377 123.077 129.167V113.542C123.077 109.495 120.169 106.033 116.183 105.334L116.016 105.304L121.694 96.0121C122.078 95.3837 122.377 94.7071 122.583 94L132.463 60.1279C141.246 58.5703 147.917 50.8975 147.917 41.6667C147.917 31.3113 139.522 22.9167 129.167 22.9167C123.86 22.9167 119.069 25.1208 115.658 28.6634L111.552 26.7373C112.167 24.8813 112.5 22.8965 112.5 20.8333C112.5 10.478 104.105 2.08331 93.75 2.08331C83.3947 2.08331 75 10.478 75 20.8333C75 10.478 66.6053 2.08331 56.25 2.08331C45.8947 2.08331 37.5 10.478 37.5 20.8333Z" fill="#262626"/>
<path d="M59.9892 30.5588C63.8949 29.0562 66.6667 25.2684 66.6667 20.8334C66.6667 15.0804 62.003 10.4167 56.25 10.4167C50.497 10.4167 45.8333 15.0804 45.8333 20.8334C45.8333 26.1497 49.816 30.5359 54.9606 31.171L50.3152 68.75L27.9213 49.3001C29.9689 47.398 31.25 44.682 31.25 41.6667C31.25 35.9137 26.5863 31.25 20.8333 31.25C15.0804 31.25 10.4167 35.9137 10.4167 41.6667C10.4167 47.4197 15.0804 52.0834 20.8333 52.0834C21.8461 52.0834 22.825 51.9389 23.7508 51.6693L35.4167 91.6667L47.4805 111.407L35.4167 113.542V129.167L114.744 129.167V113.542L102.525 111.399L114.583 91.6667L126.249 51.6693C127.175 51.9389 128.154 52.0834 129.167 52.0834C134.92 52.0834 139.583 47.4197 139.583 41.6667C139.583 35.9137 134.92 31.25 129.167 31.25C123.414 31.25 118.75 35.9137 118.75 41.6667C118.75 44.682 120.031 47.398 122.079 49.3001L99.6848 68.75L95.0394 31.171C100.184 30.5359 104.167 26.1497 104.167 20.8334C104.167 15.0804 99.503 10.4167 93.75 10.4167C87.9971 10.4167 83.3333 15.0804 83.3333 20.8334C83.3333 25.2684 86.1051 29.0562 90.0108 30.5588L75 64.5833L59.9892 30.5588Z" fill="#F4F7FA"/>
</svg>
