<svg width="150" height="150" viewBox="0 0 150 150" fill="none" xmlns="http://www.w3.org/2000/svg">
<path d="M54.1667 10.4167C55.6845 10.4167 57.1076 10.8225 58.3333 11.5315C59.5591 10.8225 60.9821 10.4167 62.5 10.4167H85.4167C86.9345 10.4167 88.3576 10.8225 89.5834 11.5315C90.8091 10.8225 92.2322 10.4167 93.75 10.4167H114.583C119.186 10.4167 122.917 14.1476 122.917 18.75V37.5C122.917 40.123 121.682 42.5929 119.583 44.1667L106.725 53.8107L110.366 86.5798C111.33 95.2553 115.368 99.6569 121.25 107.5C122.332 108.942 122.917 110.697 122.917 112.5V129.167C122.917 133.769 119.186 137.5 114.583 137.5H33.3333C28.731 137.5 25 133.769 25 129.167V112.5C25 110.697 25.5848 108.942 26.6667 107.5C32.549 99.6569 36.587 95.2553 37.551 86.5798L41.192 53.8107L28.3333 44.1667C26.235 42.5929 25 40.123 25 37.5V18.75C25 14.1476 28.731 10.4167 33.3333 10.4167H54.1667Z" fill="#262626"/>
<path d="M33.3333 18.75H54.1667V31.25H62.5V18.75H85.4167V31.25H93.75V18.75H114.583V37.5L97.9167 50L102.083 87.5H45.8333L50 50L33.3333 37.5V18.75Z" fill="#F4F7FA"/>
<path d="M45.8333 95.8333H102.083L114.583 112.5V129.167H33.3333V112.5L45.8333 95.8333Z" fill="#F4F7FA"/>
</svg>
